<svg xmlns="http://www.w3.org/2000/svg" width="40" height="40" fill="none" viewBox="0 0 40 40">
  <path fill="#4D5AE5" d="M40 20a19.937 19.937 0 0 1-5.858 14.142A19.937 19.937 0 0 1 20 40a19.937 19.937 0 0 1-14.142-5.858A19.938 19.938 0 0 1 0 20 19.937 19.937 0 0 1 5.858 5.858 19.938 19.938 0 0 1 20 0a19.937 19.937 0 0 1 14.142 5.858A19.937 19.937 0 0 1 40 20Z"/>
  <g clip-path="url(#a)">
    <path fill="#F4F4FD" d="M31.977 15.056c-.057-1.275-.263-2.152-.558-2.911a5.857 5.857 0 0 0-1.388-2.129 5.907 5.907 0 0 0-2.124-1.383c-.764-.295-1.636-.502-2.911-.558C23.71 8.015 23.303 8 20.045 8c-3.259 0-3.667.014-4.947.07-1.275.057-2.152.263-2.911.558a5.854 5.854 0 0 0-2.129 1.388 5.907 5.907 0 0 0-1.383 2.124c-.295.764-.501 1.636-.558 2.911-.06 1.285-.075 1.693-.075 4.951 0 3.259.014 3.667.07 4.947.057 1.275.263 2.152.559 2.911a5.918 5.918 0 0 0 1.387 2.129 5.9 5.9 0 0 0 2.124 1.383c.764.295 1.636.501 2.912.558 1.28.056 1.688.07 4.946.07s3.666-.014 4.946-.07c1.276-.057 2.152-.263 2.912-.558a6.139 6.139 0 0 0 3.511-3.512c.296-.764.502-1.636.558-2.911.056-1.28.07-1.688.07-4.947 0-3.258-.004-3.666-.06-4.946Zm-2.162 9.799c-.051 1.172-.248 1.805-.412 2.227a3.981 3.981 0 0 1-2.279 2.279c-.422.164-1.06.36-2.227.412-1.266.056-1.645.07-4.848.07-3.202 0-3.586-.014-4.848-.07-1.172-.052-1.805-.248-2.227-.412a3.693 3.693 0 0 1-1.378-.896 3.732 3.732 0 0 1-.896-1.378c-.164-.422-.36-1.06-.412-2.227-.056-1.266-.07-1.646-.07-4.848 0-3.203.014-3.587.07-4.848.052-1.172.248-1.805.412-2.227.193-.52.498-.994.9-1.378a3.725 3.725 0 0 1 1.38-.896c.421-.164 1.059-.36 2.226-.412 1.266-.057 1.646-.07 4.848-.07 3.207 0 3.587.013 4.848.07 1.172.051 1.805.248 2.227.412.52.192.994.497 1.378.896.399.389.703.857.896 1.378.164.422.36 1.06.412 2.227.057 1.266.07 1.646.07 4.848s-.013 3.577-.07 4.843Z"/>
    <path fill="#F4F4FD" d="M20.044 13.837a6.167 6.167 0 0 0-6.165 6.165 6.167 6.167 0 0 0 6.165 6.166 6.167 6.167 0 0 0 6.166-6.166 6.167 6.167 0 0 0-6.166-6.165Zm0 10.165a4 4 0 1 1 .002-8 4 4 0 0 1-.002 8Zm7.849-10.409a1.44 1.44 0 1 1-2.879 0 1.44 1.44 0 0 1 2.879 0Z"/>
  </g>
  <defs>
    <clipPath id="a">
      <path fill="#fff" d="M8 8h24v24H8z"/>
    </clipPath>
  </defs>
</svg>
