<svg xmlns="http://www.w3.org/2000/svg" aria-hidden="true" style="position:absolute;width:0;height:0;overflow:hidden"><defs><symbol id="icon-instagram-footer" viewBox="0 0 64 64"><path fill="#f4f4fd" d="M63.939 18.816c-.152-3.4-.701-5.739-1.488-7.763a15.7 15.7 0 0 0-3.699-5.675l-.003-.003a15.754 15.754 0 0 0-5.556-3.651l-.108-.036C51.048.901 48.72.349 45.32.2 41.896.04 40.808 0 32.123 0c-8.696 0-9.784.037-13.197.187-3.397.152-5.736.701-7.76 1.488a15.692 15.692 0 0 0-5.675 3.699l-.003.003a15.754 15.754 0 0 0-3.651 5.556l-.037.108C1.013 13.078.461 15.404.312 18.804c-.16 3.427-.2 4.515-.2 13.203 0 8.691.037 9.779.187 13.192.152 3.4.701 5.739 1.491 7.763a15.849 15.849 0 0 0 3.697 5.675l.002.002a15.754 15.754 0 0 0 5.556 3.651l.108.036c2.037.787 4.363 1.336 7.765 1.488 3.413.149 4.499.187 13.189.187 8.688 0 9.776-.037 13.189-.187 3.4-.152 5.739-.701 7.765-1.488 4.313-1.701 7.663-5.051 9.324-9.254l.039-.111c.789-2.037 1.339-4.363 1.488-7.763.149-3.413.187-4.501.187-13.192 0-8.688-.011-9.776-.16-13.189zm-5.766 26.131c-.136 3.125-.661 4.813-1.099 5.939-1.102 2.8-3.277 4.975-6.005 6.052l-.072.025c-1.125.437-2.827.96-5.939 1.099-3.376.149-4.387.187-12.928.187-8.539 0-9.563-.037-12.928-.187-3.125-.139-4.813-.661-5.939-1.099a9.892 9.892 0 0 1-3.672-2.387l-.002-.002a9.975 9.975 0 0 1-2.367-3.606l-.023-.068c-.437-1.125-.96-2.827-1.099-5.939-.149-3.376-.187-4.389-.187-12.928s.037-9.565.187-12.928c.139-3.125.661-4.813 1.099-5.939a9.852 9.852 0 0 1 2.397-3.675l.003-.003a9.944 9.944 0 0 1 3.612-2.364l.068-.023c1.123-.437 2.824-.96 5.936-1.099 3.376-.152 4.389-.187 12.928-.187 8.552 0 9.563.035 12.928.187 3.125.136 4.813.661 5.939 1.099a9.818 9.818 0 0 1 3.675 2.389 9.946 9.946 0 0 1 2.389 3.675c.437 1.125.96 2.827 1.099 5.939.149 3.376.187 4.389.187 12.928s-.037 9.539-.187 12.915z" style="fill:var(--color1, #f4f4fd)"/><path fill="#f4f4fd" d="M32.117 15.565c-9.078.003-16.437 7.362-16.44 16.44.002 9.079 7.361 16.44 16.44 16.443 9.08-.002 16.441-7.362 16.443-16.442-.003-9.079-7.363-16.439-16.442-16.44zm0 27.107c-5.89-.002-10.664-4.777-10.664-10.667s4.776-10.667 10.667-10.667h.003c5.89.002 10.664 4.777 10.664 10.667S38.011 42.672 32.12 42.672h-.003zm20.931-27.757.001.101a3.84 3.84 0 1 1-7.68 0l.001-.106v.005a3.841 3.841 0 0 1 7.678-.005v.005z" style="fill:var(--color1, #f4f4fd)"/></symbol><symbol id="icon-linkedin-footer" viewBox="0 0 64 64"><path fill="#f4f4fd" d="M63.984 64H64V40.525c0-11.483-2.472-20.328-15.896-20.328-6.453 0-10.784 3.541-12.552 6.899h-.187v-5.827H22.637V64H35.89V42.843c0-5.571 1.056-10.957 7.955-10.957 6.797 0 6.899 6.357 6.899 11.315v20.8h13.24zM1.056 21.272h13.269V64H1.056V21.272zM7.685 0A7.687 7.687 0 0 0 0 7.685c0 4.243 3.443 7.76 7.685 7.76s7.685-3.517 7.685-7.76A7.69 7.69 0 0 0 7.685 0z" style="fill:var(--color1, #f4f4fd)"/></symbol><symbol id="icon-facebook-footer" viewBox="0 0 64 64"><path fill="#f4f4fd" d="M42.659 10.627h5.843V.454C47.494.313 44.027.001 39.99.001c-8.424 0-14.195 5.299-14.195 15.04v8.96h-9.296v11.376h9.296v28.624h11.397V35.38h8.92l1.416-11.376H37.189v-7.837c.003-3.288.888-5.539 5.469-5.539z" style="fill:var(--color1, #f4f4fd)"/></symbol><symbol id="icon-twitter-footer" viewBox="0 0 64 64"><path fill="#f4f4fd" d="M64 12.157c-2.199.985-4.751 1.713-7.423 2.058l-.137.014c2.721-1.634 4.764-4.157 5.747-7.161l.026-.092c-2.395 1.445-5.182 2.547-8.152 3.148l-.168.028a13.088 13.088 0 0 0-9.579-4.156c-7.245 0-13.117 5.873-13.117 13.117v.009c0 1.04.088 2.043.304 2.995-10.909-.533-20.56-5.76-27.045-13.725a13.064 13.064 0 0 0-1.795 6.631v.001a13.134 13.134 0 0 0 5.78 10.877l.046.029a12.899 12.899 0 0 1-5.993-1.655l.065.034v.144c.007 6.329 4.474 11.612 10.426 12.878l.086.015c-1.067.293-2.232.432-3.44.432l-.207.002c-.806 0-1.593-.082-2.353-.239l.075.013c1.701 5.195 6.525 9.013 12.261 9.139-4.429 3.49-10.089 5.597-16.242 5.597h-.026.001c-1.077 0-2.109-.048-3.141-.181 5.653 3.692 12.574 5.888 20.008 5.888h.126-.006c24.144 0 37.344-20 37.344-37.333 0-.581-.021-1.141-.048-1.699a26.432 26.432 0 0 0 6.517-6.711l.059-.094z" style="fill:var(--color1, #f4f4fd)"/></symbol><symbol id="icon-client-1" viewBox="0 0 119 64"><path fill="#8e8f99" d="m43.429 8 8.009 7.63-14.866-.007V52.64h38.857V38.487l8 7.622V8h-40zm31.648 29.591L52.368 15.957h22.709v21.634zm-7.051 9.634H42.72V22.329h1.789V45.54h23.518v1.687zM47.767 59.499l-.943-1.941h-.778l1.367 2.567v1.496h.705v-1.496l1.368-2.567h-.776l-.943 1.939zm3.476-1.94h.167l1.535 4.063h-.736l-.329-.951h-1.573l-.328.951h-.734l1.529-4.063h.469zm-.745 2.556h1.19l-.594-1.723-.594 1.723zm4.91-.674a2.513 2.513 0 0 1-.069-.088l-.019-.025a2.061 2.061 0 0 1-.238-.386l-.005-.013a.97.97 0 0 1-.086-.401v-.001c0-.211.043-.393.13-.546a.887.887 0 0 1 .366-.35l.005-.002c.16-.083.347-.126.56-.126h.029c.185 0 .359.047.511.129l-.006-.003a.876.876 0 0 1 .398 1.13l.002-.006c-.05.112-.116.208-.195.291a1.959 1.959 0 0 1-.278.245l-.006.004-.282.206.805.949a1.59 1.59 0 0 0 .175-.73v-.031.002h.581c0 .198-.019.384-.058.56a1.74 1.74 0 0 1-.301.676l.003-.005.594.703h-.777l-.237-.278a1.579 1.579 0 0 1-.405.225l-.011.004a1.809 1.809 0 0 1-.616.105h-.016.001c-.27 0-.503-.049-.701-.149a1.124 1.124 0 0 1-.455-.402l-.003-.004a1.099 1.099 0 0 1-.16-.576v-.02.001-.021c0-.151.038-.294.105-.418l-.002.005c.07-.127.163-.245.282-.353.11-.099.235-.199.377-.298zm.334.409-.085.061a1.05 1.05 0 0 0-.218.229l-.002.003a.678.678 0 0 0-.037.69l-.002-.004c.053.098.13.176.223.23l.003.002a.74.74 0 0 0 .345.085h.022-.001c.163 0 .318-.038.455-.106l-.006.003c.078-.039.146-.082.208-.131l-.003.002-.903-1.063zm.16-.743.249-.167a.919.919 0 0 0 .25-.226l.002-.002a.5.5 0 0 0 .076-.267v-.02.001a.404.404 0 0 0-.404-.392l-.024.001h.001-.012a.412.412 0 0 0-.374.238l-.001.002a.574.574 0 0 0 .019.501l-.002-.003c.042.088.101.179.176.277l.046.059zm7.108 1.192h-.698a1.263 1.263 0 0 1-.131.456l.003-.007a.634.634 0 0 1-.279.275l-.004.002c-.129.06-.28.096-.44.096l-.045-.001h.002-.023a.842.842 0 0 1-.403-.101l.005.002a.812.812 0 0 1-.288-.273l-.002-.003a1.333 1.333 0 0 1-.165-.417l-.002-.009a2.647 2.647 0 0 1-.054-.537v-.022.001-.343c0-.217.019-.408.058-.576.037-.162.1-.304.186-.431l-.003.005a.799.799 0 0 1 .293-.261l.004-.002a.919.919 0 0 1 .397-.089h.024-.001c.194 0 .353.034.474.101.12.065.211.16.273.286.063.123.104.274.122.448h.697a1.73 1.73 0 0 0-.233-.73l.004.008a1.296 1.296 0 0 0-.512-.49l-.007-.003a1.697 1.697 0 0 0-.767-.18l-.055.001h.003c-.255 0-.485.046-.689.135a1.415 1.415 0 0 0-.522.389 1.73 1.73 0 0 0-.331.592l-.004.012a2.546 2.546 0 0 0-.114.792v.338c0 .291.038.555.112.792.075.237.186.438.329.606.143.166.315.294.515.385.201.089.427.134.679.134.327 0 .606-.059.834-.178.229-.12.406-.282.533-.489.126-.208.201-.446.223-.711zm3.875-.597v-.223c0-.306-.04-.582-.122-.823a1.785 1.785 0 0 0-.345-.625l.002.002a1.467 1.467 0 0 0-.524-.389l-.009-.004a1.677 1.677 0 0 0-.686-.137 1.67 1.67 0 0 0-.683.137 1.492 1.492 0 0 0-.534.393 1.815 1.815 0 0 0-.345.623 2.52 2.52 0 0 0-.124.786v.038-.002.223c0 .307.041.583.123.826.08.24.2.447.353.624l-.002-.002c.151.171.329.303.533.394.207.089.434.134.685.134.251 0 .48-.046.686-.134.206-.091.384-.223.53-.394.149-.171.263-.377.343-.622.076-.236.12-.507.12-.788v-.041.002zm-.7-.229v.229c0 .227-.023.429-.067.603a1.32 1.32 0 0 1-.193.448l.003-.005a.838.838 0 0 1-.302.269l-.005.002a.919.919 0 0 1-.397.089h-.019.001-.018a.912.912 0 0 1-.401-.092l.005.002a.886.886 0 0 1-.31-.268l-.002-.003a1.335 1.335 0 0 1-.194-.434l-.002-.009a2.392 2.392 0 0 1-.068-.572v-.033.002-.229c0-.226.023-.426.067-.6.046-.175.109-.32.192-.438a.835.835 0 0 1 .305-.265l.005-.002a.88.88 0 0 1 .398-.093h.017-.001c.154 0 .293.031.416.091a.818.818 0 0 1 .309.269c.086.117.151.263.193.438.046.174.067.374.067.6z" style="fill:var(--color2, #8e8f99)"/></symbol><symbol id="icon-client-6" viewBox="0 0 119 64"><path fill="#8e8f99" d="M61.177 31.363a3.352 3.352 0 0 1-.693-2.287l-.001.01v-3.301c0-1.011.23-1.781.689-2.306s1.248-.789 2.366-.786c1.051 0 1.797.224 2.238.672.48.571.714 1.27.661 1.974v.777h-1.879v-.786a3.893 3.893 0 0 0-.055-.769.747.747 0 0 0-.266-.456l-.001-.001a1.076 1.076 0 0 0-.685-.177h.004a1.143 1.143 0 0 0-.721.19l.004-.003a.883.883 0 0 0-.31.497l-.001.006a3.685 3.685 0 0 0-.074.82v-.003 4.006a2.037 2.037 0 0 0 .246 1.136l-.005-.011a.88.88 0 0 0 .369.271l.006.002c.152.058.32.08.486.063.24.017.48-.048.665-.182a.805.805 0 0 0 .279-.482l.001-.005c.038-.216.059-.464.059-.718l-.001-.089v.004-.813h1.88v.743a3.009 3.009 0 0 1-.656 2.08l.005-.006c-.431.49-1.166.735-2.248.735-1.081 0-1.898-.262-2.362-.806zm7.824.035c-.474-.514-.712-1.263-.712-2.254v-3.472c0-.981.238-1.722.712-2.226.475-.503 1.269-.754 2.382-.752 1.105 0 1.895.251 2.369.752.475.504.717 1.246.717 2.226v3.472c0 .981-.241 1.733-.723 2.25-.483.517-1.269.775-2.362.775s-1.903-.262-2.382-.771zm3.257-.833c.17-.322.248-.674.225-1.027v-4.251a1.872 1.872 0 0 0-.227-1.015l.005.01a.894.894 0 0 0-.377-.276l-.006-.002a1.012 1.012 0 0 0-.501-.058l.005-.001a1.055 1.055 0 0 0-.504.063l.007-.002a.904.904 0 0 0-.385.274l-.001.002a1.836 1.836 0 0 0-.225 1.007v4.272c-.024.353.054.705.225 1.027.11.107.245.194.397.255a1.318 1.318 0 0 0 .975-.003l-.009.003a1.21 1.21 0 0 0 .397-.255v-.021zm4.471-7.77h2.023l1.522 6.406 1.555-6.406h1.969l.199 9.246h-1.456l-.155-6.425-1.502 6.425h-1.167l-1.557-6.449-.144 6.449h-1.471l.183-9.246zm9.537 0h3.152c1.815 0 2.723.875 2.723 2.625 0 1.677-.957 2.514-2.869 2.512h-1.073v4.11h-1.945l.011-9.247zm2.693 3.952a1.504 1.504 0 0 0 1.069-.293 1.487 1.487 0 0 0 .28-1.051l.001.007.002-.107c0-.261-.034-.513-.099-.754l.005.02a.672.672 0 0 0-.145-.254l.001.001a.801.801 0 0 0-.241-.184l-.005-.002a1.98 1.98 0 0 0-.873-.147h.005-.754v2.763h.754zm5.988-3.952h2.089l2.144 9.246h-1.814l-.423-2.131h-1.864l-.437 2.133h-1.84l2.144-9.247zm1.787 6.044-.728-3.881-.728 3.881h1.455zm4.178-6.044h1.362l2.606 5.274v-5.274h1.616v9.246H105.2l-2.623-5.505v5.505h-1.669l.003-9.246zm9.366 5.722-2.167-5.709h1.825l1.322 3.666 1.241-3.666h1.786l-2.141 5.709v3.525h-1.867v-3.525zm-46.097 7.568v.483h-1.589v3.757h-.664v-3.757h-1.597v-.483h3.848zm4.976 4.24h-.527a.221.221 0 0 1-.13-.041l.001.001a.22.22 0 0 1-.085-.096l-.001-.001-.459-1.007h-2.202l-.459 1.007a.276.276 0 0 1-.069.114.236.236 0 0 1-.132.04h-.527l1.946-4.24h.677l1.969 4.223zm-3.222-1.574h1.837l-.777-1.726a2.98 2.98 0 0 1-.14-.378l-.005-.022c-.027.08-.05.158-.073.225l-.071.178-.77 1.722zm6.576 1.158c.122.006.245.006.366 0a2.28 2.28 0 0 0 .327-.053l-.015.003c.112-.023.206-.05.297-.082l-.017.005c.086-.031.171-.069.261-.105v-.953h-.788a.2.2 0 0 1-.049-.007h.001a.159.159 0 0 1-.048-.026.096.096 0 0 1-.029-.034v-.001a.083.083 0 0 1-.009-.039v-.331h1.51v1.625a2.888 2.888 0 0 1-.8.342l-.02.005a3.362 3.362 0 0 1-.47.085l-.017.002c-.17.017-.368.027-.568.027h-.022c-.343 0-.672-.058-.979-.165l.021.006a2.404 2.404 0 0 1-.782-.445l.003.003a2.055 2.055 0 0 1-.498-.66l-.005-.012a2.082 2.082 0 0 1-.178-.851v-.03.002-.026c0-.31.064-.606.18-.874l-.005.014a1.95 1.95 0 0 1 .503-.672c.219-.188.478-.337.76-.435l.017-.005a3.279 3.279 0 0 1 1.043-.158c.182 0 .362.011.541.037.159.023.313.058.463.107.137.045.267.101.389.168.12.066.233.141.339.222l-.186.263a.172.172 0 0 1-.063.057h-.001a.195.195 0 0 1-.088.023.251.251 0 0 1-.122-.035l.001.001a2.427 2.427 0 0 1-.201-.107l.011.006a1.65 1.65 0 0 0-.25-.111l-.012-.004a2.211 2.211 0 0 0-.343-.091l-.015-.002a2.96 2.96 0 0 0-.468-.037h-.027.001-.023c-.26 0-.511.043-.744.123l.016-.005a1.655 1.655 0 0 0-.573.337l.001-.001a1.46 1.46 0 0 0-.363.526 1.983 1.983 0 0 0 .004 1.428l-.005-.014c.086.199.218.381.39.534.16.145.354.259.568.336.248.073.51.102.77.083zm6.202-.068h2.126v.483h-2.775v-4.24h.665l-.016 3.757zm4.335.484h-.665v-4.24h.665v4.24zm2.474-4.221c.04.02.075.046.103.077l2.843 3.197a.886.886 0 0 1 0-.154v.003-3.16h.579v4.258h-.335l-.022.001a.303.303 0 0 1-.124-.026l.002.001a.365.365 0 0 1-.105-.08l-2.84-3.194v3.298h-.557v-4.241h.346c.038 0 .075.007.11.019zm8.425-.019v.466h-2.359v1.4h1.91v.45h-1.91v1.447h2.358v.466h-3.043v-4.23h3.043zM24.223 9.896l29.545 7.239v25.366l-29.545-7.234V9.896zm-1.895-2.162v28.763l33.331 8.169v-28.76L22.328 7.733z" style="fill:var(--color2, #8e8f99)"/><path fill="#8e8f99" d="M40.192 58.019 6.857 49.843V21.082l33.335 8.171v28.766z" style="fill:var(--color2, #8e8f99)"/><path fill="#8e8f99" d="m22.88 9.57 29.16 7.147-12.4 10.704-29.165-7.152L22.88 9.57zm-.552-1.836L6.857 21.083l33.335 8.173 15.467-13.349-33.331-8.173zM42.069 56.4 55.66 44.67l-13.592-3.334v15.065z" style="fill:var(--color2, #8e8f99)"/></symbol><symbol id="icon-client-5" viewBox="0 0 119 64"><path fill="#8e8f99" d="M30.619 50.712c.28.313.43.704.423 1.106.014.262-.038.523-.151.766a1.79 1.79 0 0 1-.504.631 3.038 3.038 0 0 1-1.911.509l.009.001h-3.343v-7.008h3.274a3.013 3.013 0 0 1 1.827.473l-.012-.007c.21.16.378.361.489.589.11.229.16.475.145.723.019.386-.115.766-.381 1.071a1.818 1.818 0 0 1-.984.547l-.011.002a1.96 1.96 0 0 1 1.129.599zm-3.921-1.058h1.4a1.419 1.419 0 0 0 .894-.235l-.005.003a.846.846 0 0 0 .238-.306l.002-.005a.751.751 0 0 0 .06-.378v.003l.002-.059a.784.784 0 0 0-.067-.318l.002.005a.865.865 0 0 0-.232-.312l-.001-.001a1.452 1.452 0 0 0-.922-.235h.005-1.378v1.838zm2.427 2.688a.881.881 0 0 0 .256-.316l.002-.005a.787.787 0 0 0 .075-.337l-.002-.057v.002a.807.807 0 0 0-.078-.401l.002.005a.897.897 0 0 0-.261-.322l-.002-.002a1.543 1.543 0 0 0-.955-.254h.004-1.467v1.928h1.487c.335.017.666-.069.939-.243zm8.188 1.384-1.822-2.739h-.686v2.738h-1.566v-7.008h2.966a3.129 3.129 0 0 1 2.074.602l-.009-.006c.415.381.665.882.705 1.414a2.075 2.075 0 0 1-.485 1.486c-.366.377-.865.63-1.415.713l1.939 2.8h-1.703zm-2.506-3.695h1.281c.89 0 1.335-.354 1.335-1.062a.945.945 0 0 0-.074-.43l.002.006a1.051 1.051 0 0 0-.254-.363l-.001-.001a1.486 1.486 0 0 0-1.014-.283h.006-1.297l.016 2.133zm11.071 2.283h-3.123l-.552 1.41h-1.642l2.869-6.929h1.776l2.856 6.929h-1.643l-.539-1.41zm-.419-1.06-1.142-2.959-1.141 2.958h2.282zm11.139 2.472h-1.554l-3.488-4.766v4.766h-1.552v-7.009h1.552l3.487 4.793v-4.793h1.555v7.008zm8.876-1.679c-.339.54-.818.965-1.387 1.228l-.02.008a4.991 4.991 0 0 1-2.186.441h-2.769v-7.008h2.769l.129-.002c.745 0 1.452.159 2.09.445l-.032-.013a3.181 3.181 0 0 1 1.407 1.223c.32.57.487 1.2.487 1.839a3.737 3.737 0 0 1-.496 1.856l.01-.018zm-1.779-.167a2.417 2.417 0 0 0 .688-1.672v-.001a2.415 2.415 0 0 0-.688-1.672l.001.001a2.878 2.878 0 0 0-1.956-.596h.008-1.08v4.537h1.08a2.886 2.886 0 0 0 1.954-.6l-.007.005zM46.851 7.734s20.075 6.823 19.65 16.697v16.702s-20.062-6.827-19.645-16.702l-.007-16.697zm37.536 29.489c3.791-2.35 8.177-3.806 12.755-4.232v-5.229c-5.275 1.83-9.75 5.149-12.755 9.459z" style="fill:var(--color2, #8e8f99)"/><path fill="#8e8f99" d="M82.11 38.798c3.102-5.626 8.483-9.967 15.033-12.13V11.603s-28.592 9.72-27.987 23.782v23.778s1.274-.434 3.279-1.25c0-.76 0-1.527.091-2.297.592-6.528 4.039-12.577 9.584-16.817z" style="fill:var(--color2, #8e8f99)"/><path fill="#8e8f99" d="M79.39 47.631a22.308 22.308 0 0 1 1.047-5.026l-.046.158c-3.454 3.662-5.544 8.206-5.979 12.993-.041.451-.064.903-.075 1.369a79.825 79.825 0 0 0 5.973-2.836l-.474.227a21.65 21.65 0 0 1-.538-4.86c0-.713.034-1.419.099-2.115l-.007.089zm1.137.086a21.293 21.293 0 0 0 .379 6.373l-.025-.139c7.811-4.208 16.589-10.709 16.25-18.567v-.686c-5.581.563-10.802 2.76-14.863 6.253-.895 1.977-1.514 4.272-1.735 6.681l-.006.084z" style="fill:var(--color2, #8e8f99)"/></symbol><symbol id="icon-client-4" viewBox="0 0 119 64"><path fill="#8e8f99" d="M27.518 24.592h-.003c-2.726 0-4.937 1.993-4.937 4.45v.003c0 2.457 2.211 4.45 4.937 4.45h.003c2.727 0 4.937-1.992 4.937-4.45v-.003c0-2.457-2.21-4.45-4.937-4.45zm36.437-1.423c-.007-3.415-1.514-6.686-4.192-9.102-2.678-2.414-6.306-3.774-10.095-3.782-3.787.006-7.418 1.366-10.097 3.781s-4.187 5.688-4.194 9.103v18.827s28.575-2.869 28.577-18.824v-.003zM12.571 48.176c.007 2.376 1.056 4.653 2.919 6.333s4.389 2.627 7.023 2.634c2.634-.007 5.159-.953 7.022-2.633s2.912-3.954 2.92-6.331V35.081s-19.883 1.997-19.883 13.096zm9.942 2.347a2.815 2.815 0 0 1-1.447-.395 2.436 2.436 0 0 1-.953-1.039l-.006-.015a2.16 2.16 0 0 1-.146-1.37l-.003.014c.113-.482.365-.893.711-1.2l.002-.002c.362-.323.816-.55 1.317-.64l.016-.002a2.85 2.85 0 0 1 1.504.134c.475.177.882.479 1.168.864a2.16 2.16 0 0 1 .244 2.206c-.13.286-.322.545-.563.765a2.622 2.622 0 0 1-.828.505l-.018.006a2.79 2.79 0 0 1-.995.179h-.003v-.009zM40.696 46.303v4.875h-1.005v-4.875h1.005zm1.943 2.082v.784h-2.217v-.784h2.217zm.233-2.082v.786h-2.449v-.786h2.45zm4.587 2.323v.231c0 .371-.05.704-.151.998a2.183 2.183 0 0 1-.428.757l.002-.003a1.846 1.846 0 0 1-.656.472 2.063 2.063 0 0 1-.811.164h-.032.002c-.305 0-.585-.055-.84-.163a1.893 1.893 0 0 1-.654-.47l-.002-.002a2.195 2.195 0 0 1-.427-.739l-.005-.016a3.013 3.013 0 0 1-.151-.953v-.047.002-.231c0-.373.05-.705.151-.998.096-.291.242-.541.427-.756l-.002.003c.185-.208.403-.366.656-.475a2.07 2.07 0 0 1 .816-.165h.027-.001c.309 0 .587.055.84.165.255.11.473.267.656.475.185.208.328.458.429.754.103.291.154.624.154.997zm-1.014.231v-.238a2.95 2.95 0 0 0-.07-.682 1.505 1.505 0 0 0-.211-.502l.003.005a.91.91 0 0 0-.33-.299l-.005-.002a.946.946 0 0 0-.432-.103h-.02.001c-.17 0-.32.034-.453.103a.91.91 0 0 0-.329.298l-.002.003a1.506 1.506 0 0 0-.203.486l-.002.01c-.044.192-.07.413-.07.64v.045-.002.238c0 .257.023.485.07.683.047.197.117.362.208.499.091.134.203.235.335.304s.282.104.451.104c.17 0 .32-.034.453-.103a.903.903 0 0 0 .329-.302l.002-.003a1.59 1.59 0 0 0 .205-.499c.044-.193.07-.415.07-.642v-.043.002zm4.275 1.045v-.011a.64.64 0 0 0-.042-.228l.002.004a.45.45 0 0 0-.14-.194l-.001-.001a1.25 1.25 0 0 0-.283-.174l-.008-.003a3.757 3.757 0 0 0-.457-.173l-.029-.008a5.842 5.842 0 0 1-.667-.257l.038.016a2.625 2.625 0 0 1-.528-.315l.006.004a1.428 1.428 0 0 1-.351-.412l-.004-.007a1.14 1.14 0 0 1-.128-.529v-.024.001-.015c0-.196.05-.381.137-.543l-.003.006a1.27 1.27 0 0 1 .375-.429c.16-.121.351-.214.569-.279.211-.062.454-.097.705-.097h.023-.001c.359 0 .673.065.941.194.267.13.475.307.623.533.149.225.224.483.224.774h-.998v-.017a.745.745 0 0 0-.092-.361l.002.004a.617.617 0 0 0-.264-.257l-.004-.002a.934.934 0 0 0-.414-.094l-.037.001h.002l-.033-.001c-.145 0-.282.03-.408.083l.007-.003a.583.583 0 0 0-.262.209l-.001.002a.51.51 0 0 0-.086.286v.01-.001c0 .082.019.158.059.224a.686.686 0 0 0 .186.186l.002.002c.082.058.183.113.304.165s.261.102.418.151c.266.08.499.17.701.271.202.101.373.213.509.338.137.126.239.266.309.425.069.159.103.338.103.539l.001.047c0 .388-.189.732-.48.945l-.003.002a1.713 1.713 0 0 1-.559.264 2.64 2.64 0 0 1-.697.092h-.032.002c-.24 0-.479-.032-.713-.095a2.194 2.194 0 0 1-.648-.296l.008.005a1.47 1.47 0 0 1-.451-.488l-.004-.007a1.397 1.397 0 0 1-.171-.675l.001-.04v.002h1.008c0 .152.023.28.07.385a.648.648 0 0 0 .196.253l.001.001a.832.832 0 0 0 .303.139l.006.001c.12.03.251.043.394.043l.038.001c.141 0 .275-.027.398-.076l-.007.003a.53.53 0 0 0 .335-.492v-.008zm3.867-3.599v4.875h-1.001v-4.875h1.001zm1.501 0v.786h-3.977v-.786h3.977zm3.843 4.091v.784h-2.594v-.784h2.594zm-2.266-4.091v4.875h-1.006v-4.875h1.006zm1.928 1.985v.763h-2.257v-.763h2.257zm.335-1.985v.786h-2.592v-.786h2.592zm.59 0h1.817c.374 0 .694.056.961.167.271.112.478.278.623.496s.217.488.217.807c0 .262-.043.486-.134.673a1.258 1.258 0 0 1-.369.463l-.003.002c-.16.123-.345.223-.545.291l-.014.004-.318.168h-1.581l-.007-.784h1.175l.033.001a.915.915 0 0 0 .411-.097l-.005.002a.616.616 0 0 0 .26-.258l.002-.003a.794.794 0 0 0 .09-.37v-.019.001-.022a.885.885 0 0 0-.089-.388l.002.005a.586.586 0 0 0-.262-.259l-.003-.002a.964.964 0 0 0-.414-.092l-.033.001h.002-.814v4.089h-1.003v-4.875zm2.724 4.875-1.111-2.174 1.061-.007 1.126 2.134v.046h-1.074zm5.275-1.737h-1.242v-.784h1.242l.04.001c.156 0 .303-.035.435-.097l-.006.003a.604.604 0 0 0 .262-.265l.002-.003a.972.972 0 0 0-.002-.796l.002.006a.676.676 0 0 0-.261-.3l-.003-.002a.862.862 0 0 0-.432-.115l-.038.001h.002-.895v4.089H66.62v-4.875h1.897c.383 0 .709.069.983.208.274.136.483.325.629.566.145.24.217.517.217.826 0 .315-.072.587-.217.817s-.354.408-.629.533c-.274.126-.6.187-.983.187zm5.792.953v.784h-2.594v-.784h2.594zm-2.267-4.091v4.875h-1.006v-4.875h1.006zm1.928 1.985v.763h-2.256v-.763h2.257zm.335-1.985v.786h-2.591v-.786h2.591zm2.837 0v4.875h-1.001v-4.875h1.001zm1.499 0v.786h-3.977v-.786h3.977zm3.844 4.091v.784h-2.594v-.784h2.594zm-2.267-4.091v4.875h-1.005v-4.875h1.005zm1.928 1.985v.763H79.89v-.763h2.256zm.335-1.985v.786H79.89v-.786h2.591zm.59 0h1.817l.06-.001c.325 0 .635.062.92.173l-.017-.006c.27.112.478.278.623.496.144.218.217.488.217.807 0 .262-.046.486-.134.673s-.214.343-.369.463l-.003.002c-.16.123-.346.223-.546.291l-.014.004-.318.168h-1.581l-.007-.784h1.176l.032.001a.915.915 0 0 0 .411-.097l-.005.002a.616.616 0 0 0 .26-.258l.002-.003a.789.789 0 0 0 .092-.373v-.017.001-.02a.873.873 0 0 0-.091-.389l.002.005a.594.594 0 0 0-.261-.259l-.003-.002a.964.964 0 0 0-.414-.092l-.034.001h.002-.814v4.089h-1.005v-4.875zm2.726 4.875-1.112-2.174 1.062-.007 1.125 2.134v.046h-1.074zm4.205-1.276v-.007a.632.632 0 0 0-.043-.231l.001.004a.45.45 0 0 0-.14-.194l-.001-.001a1.25 1.25 0 0 0-.283-.174l-.008-.003c-.13-.06-.29-.122-.456-.173l-.029-.008a5.862 5.862 0 0 1-.668-.257l.038.016a2.625 2.625 0 0 1-.528-.315l.006.004a1.428 1.428 0 0 1-.351-.412l-.004-.007a1.14 1.14 0 0 1-.128-.529v-.024.001-.015c0-.196.05-.381.137-.543l-.003.006a1.27 1.27 0 0 1 .375-.429c.16-.121.351-.214.569-.279.211-.062.454-.097.705-.097h.023-.001c.359 0 .673.065.941.194.269.13.475.307.623.533.15.225.224.483.224.774h-.998v-.017a.756.756 0 0 0-.092-.361l.002.004a.617.617 0 0 0-.264-.257l-.004-.002a.934.934 0 0 0-.414-.094l-.037.001h.002l-.033-.001c-.145 0-.282.03-.408.083l.007-.003a.584.584 0 0 0-.26.209l-.001.002a.517.517 0 0 0-.087.287v.008c0 .082.019.158.059.224a.686.686 0 0 0 .186.186l.002.002c.082.058.183.113.304.165s.261.102.418.151c.266.08.499.17.701.271.202.101.373.213.509.338.137.126.239.266.309.425.069.159.103.338.103.539l.001.047c0 .388-.189.732-.48.945l-.003.002a1.713 1.713 0 0 1-.559.264 2.676 2.676 0 0 1-.726.091c-.241 0-.48-.032-.713-.095a2.194 2.194 0 0 1-.648-.296l.008.005a1.474 1.474 0 0 1-.452-.488l-.004-.007a1.397 1.397 0 0 1-.171-.675l.001-.04v.002h1.008c0 .152.023.28.07.385a.648.648 0 0 0 .196.253l.001.001a.84.84 0 0 0 .303.139l.006.001c.12.03.251.043.395.043l.036.001c.141 0 .275-.027.398-.076l-.007.003a.53.53 0 0 0 .335-.492v-.008z" style="fill:var(--color2, #8e8f99)"/></symbol><symbol id="icon-client-3" viewBox="0 0 119 64"><path fill="#8e8f99" d="M42.069 56.255c.018 0 .037.005.053.011a.138.138 0 0 1 .046.026l.251.238a2.074 2.074 0 0 1-.694.445l-.014.005c-.32.114-.663.169-1.007.161l-.053.001c-.321 0-.628-.055-.914-.157l.019.006a2.09 2.09 0 0 1-.714-.427l.002.001c-.194-.181-.35-.4-.456-.646l-.005-.012a2.124 2.124 0 0 1-.161-.819v-.026.001-.028c0-.297.064-.578.179-.831l-.005.013c.11-.245.277-.469.489-.657.214-.183.465-.33.74-.425l.016-.005a2.95 2.95 0 0 1 .943-.151h.034-.002c.309-.006.617.041.905.137.25.094.48.222.679.381l-.211.254a.208.208 0 0 1-.053.045l-.001.001a.141.141 0 0 1-.074.02l-.013-.001h.001a.203.203 0 0 1-.092-.028l.001.001-.114-.067-.157-.086a1.762 1.762 0 0 0-.488-.151l-.01-.001a2.177 2.177 0 0 0-.344-.026h-.033.002-.025a2.05 2.05 0 0 0-.69.118l.014-.004a1.604 1.604 0 0 0-.55.319l.002-.002c-.158.147-.279.32-.357.507a1.647 1.647 0 0 0-.129.646v.023-.001.026c0 .236.048.46.134.664l-.004-.011c.162.386.476.681.864.814l.01.003c.206.073.426.11.649.107.129.002.258-.006.385-.022.32-.032.606-.158.836-.349l-.002.002a.2.2 0 0 1 .12-.043zm7.286-1.192c.005.286-.054.571-.17.839a1.842 1.842 0 0 1-.473.65l-.002.002c-.21.185-.464.331-.745.426a3.12 3.12 0 0 1-1.94-.006l.022.006a2.199 2.199 0 0 1-.745-.431l.003.002a1.915 1.915 0 0 1-.474-.645l-.005-.012a2.152 2.152 0 0 1 .006-1.694l-.005.014c.107-.245.271-.469.48-.661.209-.177.456-.317.726-.407l.016-.005a3.054 3.054 0 0 1 1.918 0c.28.097.534.242.744.429.398.355.648.87.648 1.442l-.001.053v-.003zm-.662 0a1.72 1.72 0 0 0-.119-.674 1.396 1.396 0 0 0-.861-.819l-.01-.003a2.243 2.243 0 0 0-1.41.004l.016-.005a1.509 1.509 0 0 0-.535.32l.001-.001a1.347 1.347 0 0 0-.337.494l-.003.009a1.962 1.962 0 0 0 .004 1.362l-.004-.014c.071.186.187.358.341.504.149.137.331.246.534.315.449.144.944.144 1.394 0 .202-.07.385-.178.533-.315.152-.146.266-.319.338-.504.076-.186.119-.402.119-.629l-.001-.048v.002zm5.634.707.066.151c.026-.054.048-.103.073-.151.027-.058.055-.107.085-.153l-.003.005 1.611-2.503c.032-.045.061-.071.091-.08a.45.45 0 0 1 .134-.012h-.001.477v4.072h-.565v-3.12c-.002-.021-.002-.046-.002-.07l.002-.074v.003l-1.622 2.538a.231.231 0 0 1-.094.092l-.001.001a.277.277 0 0 1-.136.034h-.097a.287.287 0 0 1-.137-.035l.002.001a.224.224 0 0 1-.093-.09l-.001-.001-1.669-2.555v3.269h-.546v-4.064h.497c.04 0 .078.005.114.015l-.003-.001a.177.177 0 0 1 .089.077v.001l1.646 2.506a.755.755 0 0 1 .082.146zm6.067-.202v1.525h-.631v-4.066h1.406c.266-.005.531.025.786.089.205.049.393.135.555.253.135.105.242.239.313.393l.003.007c.074.166.111.342.107.52v.018c0 .371-.178.7-.454.907l-.003.002c-.159.12-.346.213-.549.267l-.011.003c-.213.06-.458.094-.71.094l-.051-.001-.761-.011zm0-.437h.763c.166.001.331-.019.489-.063a1.08 1.08 0 0 0 .356-.177l-.003.002a.767.767 0 0 0 .29-.602v-.01.001a.675.675 0 0 0-.066-.335l.002.004a.776.776 0 0 0-.219-.276l-.002-.001a1.361 1.361 0 0 0-.853-.218h.005-.763v1.677zm8.479 1.967h-.507a.239.239 0 0 1-.13-.038l.001.001a.268.268 0 0 1-.082-.092l-.001-.001-.429-.984H65.57l-.445.983a.224.224 0 0 1-.078.091l-.001.001a.237.237 0 0 1-.135.041h-.506l1.893-4.072h.656l1.918 4.072zm-3.122-1.512h1.779l-.751-1.657a2.516 2.516 0 0 1-.138-.364l-.005-.019-.072.213a2.078 2.078 0 0 1-.069.171l-.745 1.657zm5.849-2.541a.259.259 0 0 1 .093.073v.001l2.761 3.07v-3.161h.565V57.1h-.327a.3.3 0 0 1-.12-.024l.002.001a.348.348 0 0 1-.1-.076l-2.757-3.067a1.505 1.505 0 0 1 0 .144v-.003 3.026h-.565v-4.072H71.497c.037 0 .073.007.106.019l-.002-.001zm8.069 2.434v1.617h-.631v-1.617l-1.744-2.453h.579c.045 0 .087.013.122.035l-.001-.001a.378.378 0 0 1 .084.09l.001.001 1.091 1.583c.075.104.139.223.188.35l.004.011.082-.175c.031-.064.067-.126.107-.186l1.075-1.593a.443.443 0 0 1 .081-.086l.001-.001a.214.214 0 0 1 .125-.04h.583l-1.749 2.464zm-25.654-9.288c.274.03.552.054.833.075 4.257-1.626 7.857-4.289 10.353-7.656 2.495-3.366 3.774-7.285 3.675-11.269l-4.69-4.008c.953 4.241.507 8.625-1.289 12.663-1.797 4.035-4.872 7.566-8.882 10.194z" style="fill:var(--color2, #8e8f99)"/><path fill="#8e8f99" d="m52.339 46.005.126.022c4.286-2.619 7.554-6.277 9.381-10.499 1.827-4.223 2.129-8.816.866-13.187l-6.681-5.709c2.703 4.693 3.791 9.944 3.137 15.143-.654 5.2-3.022 10.135-6.827 14.231zM75 32.048c-1.135 4.377-3.893 8.325-7.862 11.257a24.685 24.685 0 0 1-3.592 2.224l-.143.066c3.232-.811 6.203-2.247 8.683-4.194 2.48-1.949 4.405-4.357 5.623-7.04L75 32.048z" style="fill:var(--color2, #8e8f99)"/><path fill="#8e8f99" d="m73.937 31.403-3.858-3.296c-.074 3.758-1.325 7.431-3.622 10.637s-5.558 5.827-9.442 7.592h.019c.865 0 1.73-.045 2.59-.131 3.63-1.266 6.838-3.28 9.335-5.863s4.208-5.654 4.978-8.937zM52.898 14.224l-4.601-3.938c-4.114 1.359-7.654 3.746-10.153 6.851-2.501 3.106-3.845 6.784-3.857 10.553.016 4.163 1.656 8.206 4.663 11.483 3.006 3.278 7.206 5.606 11.934 6.616 4.222-4.395 6.694-9.825 7.056-15.502s-1.403-11.303-5.04-16.064zm31.673 16.574c-.017-4.941-2.321-9.675-6.411-13.169-4.088-3.494-9.63-5.463-15.413-5.478h-.05c-2.776 0-5.446.455-7.94 1.294l.175-.051 28.182 24.078c.918-1.959 1.454-4.254 1.457-6.673v-.001z" style="fill:var(--color2, #8e8f99)"/></symbol><symbol id="icon-client-2" viewBox="0 0 119 64"><path fill="#8e8f99" d="M57.273 6.783h-.157c-.24-.015-.48-.021-.72-.026h-.52c-.454 0-.917.011-1.376.034l-.052-.002-.054.002h.002c-4.413.257-8.509 1.361-12.212 3.15l.193-.084-.494.238V35.4l1.157-.393a43.522 43.522 0 0 1 3.215-.953c2.764-.739 5.946-1.185 9.225-1.228h.027v3.325c-.435.002-.86.015-1.283.037l.066-.003h-.096a37.098 37.098 0 0 0-7.375 1.15l.258-.057c-3.221.819-6.043 1.951-8.666 3.399l.186-.094V8.129c2.561-1.523 5.524-2.763 8.662-3.567l.235-.051c2.513-.676 5.4-1.069 8.377-1.081h.495c.584.015 1.154.041 1.689.081 1.409.099 2.807.322 4.177.666v3.272a24.52 24.52 0 0 0-3.963-.605l-.084-.005-.083-.007a10.033 10.033 0 0 0-.827-.048zm5.759 3.344a29.23 29.23 0 0 0 2.238.082 35.992 35.992 0 0 0 9.066-1.188l-.251.056c3.22-.822 6.04-1.954 8.663-3.401l-.187.095v31.874c-2.562 1.521-5.525 2.762-8.662 3.567l-.236.051c-2.513.673-5.4 1.066-8.377 1.079h-.008l-.206.001c-2.185 0-4.306-.274-6.331-.789l.177.038V9.51c.491.114.998.218 1.512.305.845.143 1.735.247 2.602.311zm16.222.248-1.157.389c-.702.257-1.774.587-2.861.881l-.354.082c-2.88.771-6.188 1.219-9.599 1.232h-.008c-.754 0-1.448-.021-2.119-.064l-.922-.061v26.031l.792.069a25.65 25.65 0 0 0 2.255.097 30.746 30.746 0 0 0 7.78-1.028l-.215.048a31.582 31.582 0 0 0 6.102-2.208l-.189.083.494-.238V10.376zM40.842 51.671a1.7 1.7 0 0 0-1.227-.521l-.063.001h.003-.026c-.258 0-.505.051-.73.144l.013-.005a1.68 1.68 0 0 0-.947.951l-.004.011a1.879 1.879 0 0 0-.133.718v4.336c-.011.305.048.609.17.889.103.223.25.421.434.582.173.145.376.251.594.309.211.058.43.089.648.089.241.002.48-.049.699-.151a1.832 1.832 0 0 0 1.097-1.674v-.485h-1.135V57.277a.998.998 0 0 1-.069.367l.002-.007a.709.709 0 0 1-.164.244.794.794 0 0 1-.474.166h-.001a.576.576 0 0 1-.53-.231l-.001-.002a1.018 1.018 0 0 1-.152-.537l.001-.046v.002-4.043a1.385 1.385 0 0 1 .139-.648.58.58 0 0 1 .557-.262h-.003.021c.198 0 .374.096.484.243l.001.002a.916.916 0 0 1 .188.557v.026-.001.375h1.122v-.461c0-.266-.051-.52-.143-.753l.005.014a1.8 1.8 0 0 0-.38-.611l.001.001zm6.734-.048a2.01 2.01 0 0 0-1.288-.478h-.001c-.231 0-.461.042-.677.122a1.791 1.791 0 0 0-1.034.95l-.005.011a2.033 2.033 0 0 0-.166.84v4.158a1.99 1.99 0 0 0 .166.851c.103.224.251.423.439.582.174.16.377.286.599.366a1.95 1.95 0 0 0 1.968-.368l-.002.002c.181-.162.326-.36.427-.582.117-.267.173-.559.166-.851V53.031c0-.29-.061-.566-.171-.816l.005.013a1.896 1.896 0 0 0-.427-.607l-.001-.001zm-.529 5.604a.745.745 0 0 1-.225.602.827.827 0 0 1-1.069-.001l.001.001a.739.739 0 0 1-.225-.606v.003-4.159a.743.743 0 0 1 .225-.601.83.83 0 0 1 1.069.001l-.001-.001a.742.742 0 0 1 .225.604v-.003 4.16zm9.372 1.859v-7.874H55.33l-1.432 4.168h-.019l-1.443-4.167h-1.078v7.872h1.125v-4.789h.021l1.101 3.385h.561l1.11-3.385h.021v4.789h1.125zm6.39-7.321a1.57 1.57 0 0 0-.635-.431 2.442 2.442 0 0 0-.773-.123h-.045.002-1.671v7.874h1.122V56.01h.577a2.048 2.048 0 0 0 1.024-.22l-.012.005a1.65 1.65 0 0 0 .612-.595l.004-.008c.129-.209.217-.442.257-.686a5.41 5.41 0 0 0 .061-.824l-.001-.074v.004a4.481 4.481 0 0 0-.11-1.125 1.683 1.683 0 0 0-.414-.724zm-.578 2.4a.982.982 0 0 1-.107.416l.003-.006a.64.64 0 0 1-.285.274l-.004.002a1.125 1.125 0 0 1-.532.099h.003-.512v-2.677h.578l.054-.001c.164 0 .32.037.459.102l-.007-.003a.639.639 0 0 1 .261.286l.002.004c.059.129.095.279.098.438v.525c0 .183.011.373 0 .541h-.011zm5.892-2.954h-.92l-1.735 7.874h1.122l.329-1.691h1.53l.329 1.691h1.121l-1.777-7.874zm-1.035 5.11.552-2.854h.021l.549 2.854h-1.121zm8.283-.367h-.021l-1.694-4.743h-1.079v7.874h1.121V54.35h.023l1.714 4.734h1.056v-7.872H75.37v4.743zm6.855-4.743-.903 3.131H81.3l-.903-3.131h-1.186l1.541 4.546v3.327h1.122v-3.327l1.541-4.545h-1.189zM37.714 61.309h.541v1.517h.367v-1.518h.537v-.311h-1.445v.312zm4.545-.312-.709 1.829h.39l.151-.416h.729l.155.416h.4l-.727-1.829h-.39zm-.057 1.105.248-.678.248.678h-.497zm4.55.049h.423v.235a.697.697 0 0 1-.434.154.46.46 0 0 1-.388-.174l-.001-.001a.762.762 0 0 1-.136-.436l.001-.043v.002c0-.407.176-.61.526-.61a.385.385 0 0 1 .413.289l.001.003.361-.071c-.078-.357-.335-.537-.775-.537h-.024a.919.919 0 0 0-.615.236l.001-.001a.888.888 0 0 0-.262.706V61.9l-.001.043c0 .246.089.471.236.644l-.001-.001c.161.167.387.27.638.27l.059-.002h-.003.03c.288 0 .55-.111.746-.292l-.001.001v-.72h-.792v.309zm4.589-1.154h-.37v1.829h1.28v-.311h-.91v-1.518zm3.88 0h-.37v1.829h.37v-1.829zm3.792 1.22-.749-1.221h-.358v1.829h.343v-1.194l.735 1.194h.368v-1.829h-.339v1.222zm3.429-.198h.911v-.311h-.911v-.4h.979v-.312h-1.35v1.829h1.387v-.311h-1.017v-.495zm8.315-.301h-.72v-.72h-.366v1.827h.366v-.8h.72v.8h.368v-1.829h-.368v.721zm3.449.301h.914v-.311h-.914v-.4h.983v-.312H73.84v1.829h1.385v-.311h-1.017v-.495zm4.677.002c.319-.05.48-.218.48-.509a.437.437 0 0 0-.178-.406l-.001-.001a1.024 1.024 0 0 0-.539-.107h.003-.775v1.827h.368v-.765h.072l.029-.001a.5.5 0 0 1 .202.043l-.003-.001a.387.387 0 0 1 .129.132l.001.002.399.581h.439l-.223-.357a1.29 1.29 0 0 0-.4-.436l-.004-.003zm-.37-.254h-.271v-.458h.289a.97.97 0 0 1 .379.045l-.007-.002a.24.24 0 0 1-.016.371h-.001a1.016 1.016 0 0 1-.305.046l-.072-.002h.003zm3.898.252h.91v-.311h-.91v-.4h.983v-.312h-1.353v1.829h1.387v-.311h-1.017v-.495z" style="fill:var(--color2, #8e8f99)"/></symbol><symbol id="icon-instagram" viewBox="0 0 64 64"><path fill="#4d5ae5" d="M64 32v.041c0 8.824-3.582 16.81-9.372 22.585l-.001.001C48.851 60.417 40.865 64 32.041 64h-.044.002-.041c-8.823 0-16.81-3.582-22.585-9.372l-.001-.001C3.582 48.851-.001 40.865-.001 32.041v-.044.002-.041c0-8.824 3.582-16.811 9.372-22.586l.001-.001c5.776-5.79 13.763-9.373 22.587-9.373h.043H32h.041c8.824 0 16.81 3.582 22.585 9.372l.001.001C60.417 15.147 64 23.133 64 31.957v.044-.002z" style="fill:var(--color3, #4d5ae5)"/><path fill="#f4f4fd" d="M44.774 26.726c-.059-1.36-.28-2.296-.595-3.106a6.277 6.277 0 0 0-1.479-2.271l-.001-.001a6.307 6.307 0 0 0-2.222-1.459l-.043-.015c-.816-.315-1.744-.536-3.104-.595-1.371-.064-1.808-.08-5.282-.08-3.477 0-3.912.016-5.277.075-1.36.059-2.294.28-3.104.595a6.277 6.277 0 0 0-2.271 1.479l-.001.001a6.321 6.321 0 0 0-1.461 2.223l-.015.043c-.315.816-.534 1.744-.595 3.104-.064 1.371-.08 1.808-.08 5.282 0 3.477.016 3.912.075 5.277.059 1.36.28 2.296.595 3.106.325.861.83 1.63 1.48 2.27a6.303 6.303 0 0 0 2.266 1.475c.816.315 1.744.536 3.106.595 1.365.061 1.8.075 5.277.075 3.475 0 3.91-.016 5.275-.075 1.36-.059 2.296-.28 3.106-.595a6.586 6.586 0 0 0 3.73-3.701l.015-.044c.315-.816.536-1.744.595-3.106.061-1.365.075-1.8.075-5.277 0-3.475-.005-3.91-.064-5.275zM42.47 37.178c-.056 1.251-.266 1.926-.442 2.376a4.271 4.271 0 0 1-2.402 2.422l-.029.01c-.45.174-1.13.384-2.374.438-1.35.061-1.755.075-5.171.075s-3.826-.016-5.171-.075c-1.25-.054-1.925-.264-2.376-.44a3.965 3.965 0 0 1-1.47-.954l-.001-.001a3.98 3.98 0 0 1-.946-1.443l-.009-.027c-.176-.45-.384-1.13-.44-2.374-.059-1.35-.075-1.757-.075-5.171 0-3.416.016-3.826.075-5.171.056-1.251.266-1.926.44-2.376a3.909 3.909 0 0 1 .96-1.47c.416-.424.915-.75 1.472-.955.448-.176 1.13-.384 2.374-.44 1.35-.059 1.755-.075 5.171-.075 3.421 0 3.824.016 5.171.075 1.25.056 1.925.266 2.376.44a3.954 3.954 0 0 1 1.469.955c.426.416.752.915.955 1.472.176.448.386 1.13.442 2.374.059 1.35.074 1.755.074 5.171 0 3.414-.014 3.814-.074 5.165z" style="fill:var(--color1, #f4f4fd)"/><path fill="#f4f4fd" d="M32.048 25.426a6.578 6.578 0 0 0-.008 13.152h.008a6.578 6.578 0 0 0 .007-13.152h-.008zm0 10.843a4.266 4.266 0 1 1 0-8.534 4.266 4.266 0 1 1 0 8.534zm8.371-11.103a1.536 1.536 0 0 1-3.072 0 1.536 1.536 0 0 1 3.072 0z" style="fill:var(--color1, #f4f4fd)"/></symbol><symbol id="icon-twitter" viewBox="0 0 64 64"><path fill="#4d5ae5" d="M64 32v.041c0 8.824-3.582 16.81-9.372 22.585l-.001.001C48.851 60.417 40.865 64 32.041 64h-.044.002-.041c-8.823 0-16.81-3.582-22.585-9.372l-.001-.001C3.582 48.851-.001 40.865-.001 32.041v-.044.002-.041c0-8.824 3.582-16.811 9.372-22.586l.001-.001c5.776-5.79 13.763-9.373 22.587-9.373h.043H32h.041c8.824 0 16.81 3.582 22.585 9.372l.001.001C60.417 15.147 64 23.133 64 31.957v.044-.002z" style="fill:var(--color3, #4d5ae5)"/><path fill="#f4f4fd" d="M44.8 24.062c-.88.395-1.901.686-2.969.823l-.054.006a5.244 5.244 0 0 0 2.298-2.864l.01-.037a10.3 10.3 0 0 1-3.261 1.259l-.067.011a5.248 5.248 0 0 0-9.078 3.587v.001c0 .416.035.816.122 1.197a14.843 14.843 0 0 1-10.796-5.463l-.021-.027a5.2 5.2 0 0 0-.716 2.649 5.25 5.25 0 0 0 2.311 4.354l.018.012a5.16 5.16 0 0 1-2.397-.66l.026.013v.058a5.276 5.276 0 0 0 4.17 5.151l.035.006a5.11 5.11 0 0 1-1.335.173h-.043.002l-.082.001c-.322 0-.637-.033-.941-.096l.03.005c.698 2.099 2.619 3.597 4.897 3.656h.007a10.472 10.472 0 0 1-6.496 2.238h-.012.001a9.8 9.8 0 0 1-1.256-.072 14.631 14.631 0 0 0 8.003 2.355h.051-.003c9.658 0 14.938-8 14.938-14.934a13.6 13.6 0 0 0-.019-.678 10.573 10.573 0 0 0 2.607-2.687l.024-.038z" style="fill:var(--color1, #f4f4fd)"/></symbol><symbol id="icon-facebook" viewBox="0 0 64 64"><path fill="#4d5ae5" d="M64 32v.041c0 8.824-3.582 16.81-9.372 22.585l-.001.001C48.851 60.417 40.865 64 32.041 64h-.044.002-.041c-8.823 0-16.81-3.582-22.585-9.372l-.001-.001C3.582 48.851-.001 40.865-.001 32.041v-.044.002-.041c0-8.824 3.582-16.811 9.372-22.586l.001-.001c5.776-5.79 13.763-9.373 22.587-9.373h.043H32h.041c8.824 0 16.81 3.582 22.585 9.372l.001.001C60.417 15.147 64 23.133 64 31.957v.044-.002z" style="fill:var(--color3, #4d5ae5)"/><path fill="#f4f4fd" d="M36.264 23.45H38.6v-4.069a29.323 29.323 0 0 0-3.302-.181h-.108.006c-3.37 0-5.677 2.12-5.677 6.016V28.8h-3.718v4.55h3.718V44.8h4.558V33.352h3.568l.566-4.552h-4.136v-3.134c.002-1.315.355-2.216 2.189-2.216z" style="fill:var(--color1, #f4f4fd)"/></symbol><symbol id="icon-linkedin" viewBox="0 0 64 64"><path fill="#4d5ae5" d="M64 32v.041c0 8.824-3.582 16.81-9.372 22.585l-.001.001C48.851 60.417 40.865 64 32.041 64h-.044.002-.041c-8.823 0-16.81-3.582-22.585-9.372l-.001-.001C3.582 48.851-.001 40.865-.001 32.041v-.044.002-.041c0-8.824 3.582-16.811 9.372-22.586l.001-.001c5.776-5.79 13.763-9.373 22.587-9.373h.043H32h.041c8.824 0 16.81 3.582 22.585 9.372l.001.001C60.417 15.147 64 23.133 64 31.957v.044-.002z" style="fill:var(--color3, #4d5ae5)"/><path fill="#f4f4fd" d="M44.794 44.8h.006v-9.392c0-4.592-.989-8.131-6.358-8.131-2.581 0-4.314 1.418-5.021 2.76h-.075v-2.331h-5.09V44.8h5.302v-8.464c0-2.227.422-4.381 3.181-4.381 2.72 0 2.76 2.542 2.76 4.525v8.32h5.296zM19.622 27.709h5.307V44.8h-5.307V27.709zm2.652-8.509a3.073 3.073 0 0 0-3.072 3.074c0 1.696 1.376 3.104 3.072 3.104 1.698 0 3.075-1.408 3.075-3.104S23.968 19.2 22.272 19.2z" style="fill:var(--color1, #f4f4fd)"/></symbol><symbol id="icon-antena" viewBox="0 0 64 64"><path fill="#2e2f42" d="M61.546 44.195 44.66 27.185l1.874-9.231c.484.189.998.288 1.517.291h.013a4.319 4.319 0 1 0-4.018-2.871l-9.92 1.211L17.945.319a1.063 1.063 0 0 0-.753-.32c-.28.001-.548.113-.747.31L13.42 3.317a1.067 1.067 0 0 0 0 1.508l1.628 1.651a29.885 29.885 0 0 0 5.039 35.326.99.99 0 0 0 .292.195 6.276 6.276 0 0 0-.105 1.094v12.373h-12.8a5.339 5.339 0 0 0-5.333 5.333v2.133c0 .589.478 1.067 1.067 1.067h49.067c.589 0 1.067-.478 1.067-1.067v-2.133a5.34 5.34 0 0 0-5.333-5.333h-12.8V49.98c2.005.421 4.048.635 6.097.64a29.697 29.697 0 0 0 14.08-3.567l1.636 1.646c.199.203.469.318.753.32.28-.002.548-.113.747-.31l3.025-3.008a1.067 1.067 0 0 0 0-1.508zM46.56 12.466a2.134 2.134 0 1 1 1.504 3.646h-.006a2.133 2.133 0 0 1-1.493-3.646h-.004zm-2.511 7.009-1.197 5.891-2.351-2.365 3.548-3.526zm-1.212-1.803-3.84 3.818-2.971-2.987 6.811-.831zM48.008 57.6a3.2 3.2 0 0 1 3.2 3.2v1.067H4.275V60.8a3.2 3.2 0 0 1 3.2-3.2h40.533zm-14.933-4.267v2.133H22.408v-2.133h10.667zM22.408 51.2v-8.107c0-2.588 2.393-4.693 5.333-4.693s5.333 2.106 5.333 4.693V51.2H22.407zm12.8-3.392v-4.715c0-3.764-3.349-6.827-7.467-6.827a7.6 7.6 0 0 0-6.562 3.572 27.739 27.739 0 0 1-4.557-31.774l37.204 37.417a27.643 27.643 0 0 1-18.618 2.326zm22.578-1.367L15.672 4.079l1.509-1.504 15.87 15.96c.008 0 .012.014.019.019l26.229 26.383-1.514 1.504z" style="fill:var(--color4, #2e2f42)"/><path fill="#4d5ae5" d="M27.751 40.533h-.01a3.2 3.2 0 0 0-.01 6.4h.01a3.2 3.2 0 0 0 .01-6.4zm.747 3.957a1.066 1.066 0 1 1-.756-1.823 1.067 1.067 0 0 1 .747 1.823h.01z" style="fill:var(--color3, #4d5ae5)"/></symbol><symbol id="icon-clock" viewBox="0 0 64 64"><path fill="#2e2f42" d="M62.593 30.602C62.59 13.697 48.882-.004 31.977 0S1.371 13.711 1.375 30.616a30.609 30.609 0 0 0 21.299 29.152c.121.038.247.058.374.057.241-.001.477-.065.685-.188.27-.16.472-.414.566-.713l7.73-24.5a3.826 3.826 0 0 0-.04-7.653 3.763 3.763 0 0 0-1.64.383L20.137 16.941a1.276 1.276 0 0 0-1.803 1.804L28.54 28.963a3.753 3.753 0 0 0 1.073 4.618l-7.365 23.346C7.692 51.565.239 35.419 5.601 20.864S27.109-1.145 41.664 4.217C56.22 9.579 63.673 25.725 58.311 40.28a28.092 28.092 0 0 1-14.924 15.947l-.796-3.748a1.275 1.275 0 0 0-2.097-.687l-7.674 6.851a1.276 1.276 0 0 0 .461 2.169l9.797 3.127a1.275 1.275 0 0 0 1.638-1.479l-.782-3.678a30.51 30.51 0 0 0 18.658-28.178zm-30.609-1.275a1.275 1.275 0 1 1 0 2.55 1.275 1.275 0 0 1 0-2.55zm4.201 29.728 4.368-3.897 1.206 5.681-5.574-1.784z" style="fill:var(--color4, #2e2f42)"/><path fill="#4d5ae5" d="M30.709 6.37v2.551a1.275 1.275 0 1 0 2.55 0V6.37a1.275 1.275 0 0 0-2.55 0zM7.752 29.327a1.275 1.275 0 1 0 0 2.55h2.551a1.275 1.275 0 1 0 0-2.55H7.752zM56.216 31.878a1.275 1.275 0 1 0 0-2.55h-2.551a1.275 1.275 0 0 0 0 2.55h2.551z" style="fill:var(--color3, #4d5ae5)"/></symbol><symbol id="icon-diagram" viewBox="0 0 64 64"><path fill="#4d5ae5" d="M29.851 29.929h2.132v9.595h-2.132v-9.595zM38.38 34.194h2.132v5.331H38.38v-5.331zM21.322 37.392h2.132v2.132h-2.132v-2.132zM14.925 36.326h2.132v3.198h-2.132v-3.198z" style="fill:var(--color3, #4d5ae5)"/><path fill="#2e2f42" d="M3.198 56.582h51.173a3.198 3.198 0 0 0 3.198-3.198V49.12a3.198 3.198 0 0 0-3.198-3.198h-1.066V19.335l6.056-5.737a3.216 3.216 0 1 0-1.494-1.526l-4.563 4.325v-2.46a3.198 3.198 0 0 0-3.198-3.198H7.462a3.198 3.198 0 0 0-3.198 3.198V45.92H3.198A3.198 3.198 0 0 0 0 49.118v4.264a3.198 3.198 0 0 0 3.198 3.198zm57.57-46.909a1.066 1.066 0 1 1 0 2.131 1.066 1.066 0 0 1 0-2.131zM6.397 13.938c0-.589.477-1.066 1.066-1.066h42.644c.589 0 1.066.477 1.066 1.066v4.477l-2.132 2.026V16.07c0-.589-.477-1.066-1.066-1.066H9.595c-.589 0-1.066.477-1.066 1.066v26.653c0 .589.477 1.066 1.066 1.066h38.38c.589 0 1.066-.477 1.066-1.066V23.374l2.132-2.02v24.567H6.396V13.938zm9.595 13.859a3.197 3.197 0 1 0 2.214 5.496l3.706 1.859c.43.215.953.114 1.273-.245l7.878-8.863 7.744 5.803c.415.311.995.278 1.372-.079l6.73-6.375v16.262H10.661v-24.52h36.248v5.321l-7.543 7.143-7.809-5.854a1.066 1.066 0 0 0-1.436.144l-7.986 8.985-2.985-1.493c.022-.128.035-.257.041-.387a3.198 3.198 0 0 0-3.198-3.198zm1.066 3.198a1.066 1.066 0 1 1-2.131 0 1.066 1.066 0 0 1 2.131 0zm6.396 17.058h10.661v1.066c0 .589-.477 1.066-1.066 1.066H24.52a1.066 1.066 0 0 1-1.066-1.066v-1.066zM2.132 49.119c0-.589.477-1.066 1.066-1.066h18.124v1.066a3.198 3.198 0 0 0 3.198 3.198h8.529a3.198 3.198 0 0 0 3.198-3.198v-1.066h18.124c.589 0 1.066.477 1.066 1.066v4.264c0 .589-.477 1.066-1.066 1.066H3.198a1.066 1.066 0 0 1-1.066-1.066v-4.264z" style="fill:var(--color4, #2e2f42)"/></symbol><symbol id="icon-astronaut" viewBox="0 0 64 64"><path fill="#4d5ae5" d="M63.948 9.048a1.067 1.067 0 0 0-.861-.725l-3.821-.556-1.71-3.462c-.358-.73-1.554-.73-1.913 0l-1.71 3.462-3.821.556a1.066 1.066 0 0 0-.592 1.818l2.766 2.696-.653 3.806c-.068.4.096.804.423 1.043.332.241.765.271 1.124.081l3.418-1.797 3.418 1.797a1.072 1.072 0 0 0 1.124-.081c.328-.239.493-.643.423-1.043l-.653-3.806 2.766-2.696a1.07 1.07 0 0 0 .27-1.093zm-4.926 2.654a1.064 1.064 0 0 0-.306.944l.382 2.228-2.001-1.052a1.066 1.066 0 0 0-.994 0l-2.001 1.052.382-2.228a1.068 1.068 0 0 0-.306-.944l-1.62-1.579 2.238-.325c.348-.05.648-.269.803-.584L56.6 7.187l1.001 2.027c.156.315.456.533.803.584l2.238.325-1.618 1.579zM52.267 41.044h-2.133v2.133h2.133v-2.133zM52.267 45.311h-2.133v2.133h2.133v-2.133zM54.4 43.178h-2.133v2.133H54.4v-2.133zM50.134 43.178h-2.133v2.133h2.133v-2.133zM44.8 52.778h-2.133v2.133H44.8v-2.133zM44.8 57.045h-2.133v2.133H44.8v-2.133zM46.934 54.911h-2.133v2.133h2.133v-2.133zM42.667 54.911h-2.133v2.133h2.133v-2.133zM32 48.511h-2.133v2.133H32v-2.133zM32 52.778h-2.133v2.133H32v-2.133zM34.133 50.645H32v2.133h2.133v-2.133zM29.867 50.645h-2.133v2.133h2.133v-2.133zM11.733 12.244H9.6v2.133h2.133v-2.133zM11.733 16.511H9.6v2.133h2.133v-2.133zM13.866 14.377h-2.133v2.133h2.133v-2.133zM9.6 14.377H7.467v2.133H9.6v-2.133z" style="fill:var(--color3, #4d5ae5)"/><path fill="#2e2f42" d="M49.429 28.319a3.545 3.545 0 0 0-2.377-1.409 3.55 3.55 0 0 0-2.68.704l-2.505 1.92-3.795 2.834-2.716-1.082c4.843-2.173 8.227-7.017 8.227-12.64 0-7.646-6.245-13.867-13.922-13.867S15.739 11 15.739 18.646c0 2.771.829 5.348 2.24 7.517l-5.528-.048h-.01c-.017 0-.031.009-.047.01a1.036 1.036 0 0 0-.31.062c-.026.01-.052.015-.077.027-.013.005-.026.006-.038.013L5.503 29.42l-.002.001-3.787 1.821a.881.881 0 0 0-.126.07 3.562 3.562 0 0 0 .915 6.369 3.565 3.565 0 0 0 2.757-.257l2.776-1.476 4.528-2.338 2.714-.016L4.395 44.425l-.003.002-2.677 2.667a3.3 3.3 0 0 0-.98 2.355c0 .89.348 1.727.98 2.357.65.646 1.504.971 2.358.971a3.34 3.34 0 0 0 2.361-.971l2.628-2.618 3.482-2.599 1.802 1.794-3.523 3.508-.003.002-2.677 2.667a3.296 3.296 0 0 0-.98 2.355c0 .89.348 1.727.98 2.357.65.646 1.505.971 2.36.971s1.71-.324 2.361-.971l6.963-6.933.002-.003 2.019-2-.008-.008c.013-.013.031-.017.044-.031l10.332-11.316 6.942.988a.947.947 0 0 0 .524-.066c.035-.013.066-.03.099-.047.038-.019.079-.03.115-.054l6.427-4.267c.023-.016.036-.042.059-.059.026-.02.058-.029.081-.051l2.543-2.382a3.56 3.56 0 0 0 .424-4.724zM4.261 35.54c-.347.186-.74.223-1.117.103a1.428 1.428 0 0 1-.424-2.52l2.627-1.264.898 2.625-1.984 1.055zm6.994-3.655-3.097 1.6-.878-2.567 4.054-2.001-.079 2.968zm30.199-13.241c0 1.837-.438 3.569-1.198 5.119l-8.363-3.798a3.724 3.724 0 0 0-1.576-2.776l2.928-9.721c4.755 1.513 8.209 5.949 8.209 11.176zm-23.578 0c0-6.469 5.289-11.733 11.789-11.733.506 0 1.001.043 1.49.104l-2.864 9.507c-.038-.001-.075-.012-.114-.012-2.065 0-3.745 1.675-3.745 3.733s1.68 3.733 3.745 3.733c1.389 0 2.589-.767 3.236-1.889l7.725 3.509c-2.149 2.893-5.59 4.78-9.473 4.78-6.5 0-11.789-5.264-11.789-11.734zm11.913 1.6c0 .882-.723 1.6-1.612 1.6s-1.612-.718-1.612-1.6c0-.882.723-1.6 1.612-1.6s1.612.718 1.612 1.6zM4.93 50.292a1.217 1.217 0 0 1-1.709.001 1.189 1.189 0 0 1 0-1.689l1.924-1.917 1.702 1.695-1.918 1.909zm6.427 7.467a1.217 1.217 0 0 1-1.71.001 1.189 1.189 0 0 1 0-1.689l1.925-1.918 1.704 1.695-1.919 1.91zm6.964-6.937-.003.002-3.53 3.52-1.704-1.695 3.526-3.51v-.001l.003-.002c.08-.08.13-.176.179-.271.014-.028.041-.051.052-.08.033-.082.038-.171.051-.257.006-.049.028-.095.028-.145 0-.072-.026-.141-.041-.211-.013-.064-.013-.129-.037-.191-.041-.1-.11-.189-.182-.275-.02-.023-.028-.053-.05-.076h-.001l-.002-.004-3.214-3.2c-.034-.034-.078-.048-.116-.077a.989.989 0 0 0-.174-.115.987.987 0 0 0-.187-.065 1.013 1.013 0 0 0-.206-.039 1.02 1.02 0 0 0-.191.01.982.982 0 0 0-.208.041.934.934 0 0 0-.189.09c-.04.022-.084.03-.122.058l-3.547 2.648-1.802-1.794 4.798-4.772 8.721 8.577-1.855 1.838zm13.637-14.034c-.031-.004-.06.008-.091.005a1.046 1.046 0 0 0-.23.014.983.983 0 0 0-.369.137.99.99 0 0 0-.166.123c-.026.022-.056.033-.08.059l-9.396 10.291-8.656-8.513 5.666-5.636a1.067 1.067 0 0 0-.76-1.822v-.001l-4.437.027.056-3.215 6.208.053a13.897 13.897 0 0 0 9.963 4.202c.875 0 1.728-.091 2.559-.245.08.064.159.129.259.17l4.819 1.92.305 1.517.356 1.771-6.005-.854zm8.083.357-.626-3.116 2.893-2.16 1.893 2.513-4.16 2.763zm7.507-5.662-1.676 1.57-1.862-2.473 1.663-1.275c.31-.239.702-.336 1.086-.286.386.054.727.256.96.569a1.428 1.428 0 0 1-.171 1.894z" style="fill:var(--color4, #2e2f42)"/><path fill="#2e2f42" d="m27.204 37.088-4.286-4.267a1.065 1.065 0 0 0-1.505 0l-4.285 4.267a1.07 1.07 0 0 0 0 1.512l4.285 4.267a1.065 1.065 0 0 0 1.505 0l4.286-4.267a1.067 1.067 0 0 0 0-1.512zm-5.038 3.518-2.773-2.762 2.773-2.762 2.774 2.762-2.774 2.762zM34.328 10.142l-.515 2.072c.142.035 3.475.903 3.475 4.298h2.133c0-4.034-3.331-5.931-5.093-6.369zM39.422 18.644h-2.133v2.134h2.133v-2.134z" style="fill:var(--color4, #2e2f42)"/></symbol></defs></svg>